<svg version="1.1" id="レイヤー_1" xmlns="http://www.w3.org/2000/svg" viewBox="0 0 360 360">
<defs>
<style>
    #wrap_all path {
    fill: #f60;
    stroke: #f60;
    stroke-width: 2px;
    animation: svg 5s ease-in both infinite;
    }

    @keyframes svg {
        0% {
            fill: transparent;
            stroke-dasharray: 2000px;
            stroke-dashoffset: 2000px;
        }

        20% {
            stroke-dashoffset: 0;
        }

        30% {
            fill: transparent;
        }

        50% {
            fill: #f60;
        }
    }
</style>
</defs>
<g id="wrap_all" data-name="svgGroup">
    <path d="M294.69,165.2l-4.66,94.06c-0.2,4.78-2.42,8.1-6.68,9.86c-4.31,1.79-9.3,1.51-14.91-0.82l-60.79-25.24
        c-7.67-3.17-11.47-8.34-11.59-15.31c-0.02-1.58,0.26-3.12,0.86-4.64l24.44-62.93c0.37-0.77,0.48-1.67,0.34-2.69
        c-0.56-3.72-3.56-6.23-8.93-7.59l-38.85-10.51c-2.44-0.62-4.97-0.58-7.64,0.09c-2.68,0.68-4.74,1.77-6.16,3.28l-44.87,45.19
        c-2.27,2.5-5.21,4.25-8.79,5.22c-3.59,0.98-6.75,0.9-9.43-0.21l-30.06-12.48c-3.92-1.63-4.4-4.41-1.59-8.28
        c0.64-0.88,1.48-1.75,2.54-2.61l83.81-66.55L72.23,86.1c-2.07-0.41-2.25-1.25-0.58-2.5c0.38-0.28,0.88-0.57,1.5-0.86
        l34.27-16.15c1.06-0.5,2.36-0.87,3.92-1.13c1.54-0.26,2.88-0.31,4.03-0.17l31.83,4.64c1.32,0.16,2.79,0.11,4.4-0.16
        c1.62-0.29,2.87-0.72,3.77-1.3l55.75-30.74c0.64-0.4,1.62-0.71,2.94-0.94c1.32-0.22,2.59-0.29,3.78-0.18l3.44,0.42
        c2.28,0.19,3.36,0.67,3.23,1.48c-0.04,0.18-0.16,0.36-0.4,0.52l-48.63,38.01c-0.85,0.68-2.13,1.19-3.85,1.5
        c-1.74,0.31-3.39,0.37-4.97,0.14l-36.95-5.74c-1.28-0.18-2.74-0.13-4.39,0.17c-1.66,0.29-3.02,0.71-4.08,1.28l-14.02,8.02
        c-0.56,0.31-1,0.6-1.32,0.91c-1.39,1.29-0.95,2.16,1.37,2.59l68.38,13.94l13.62,2.52c3.47,0.64,4.88,1.7,4.47,3.64
        c-0.1,0.46-0.48,0.79-0.79,1.21l-1.41,1.51l-14.16,15.17c-0.51,0.55-0.85,1.11-1,1.66c-0.68,2.44,0.94,4.14,4.93,5.07
        l100.32,23.49c6.31,1.48,10.51,4.25,12.54,8.39C294.63,163.47,294.8,164.37,294.69,165.2z"/>
    <path d="M245.99,28.14c0.32,2.67-6.99,4.84-16.35,4.84c-9.34,0-17.17-2.17-17.5-4.84c-0.33-2.67,6.99-4.84,16.34-4.84
        C237.81,23.3,245.66,25.46,245.99,28.14z"/>
    <path d="M79.5,239.14l13.62,11.54c-2.96,3.94-6.21,6.89-9.75,8.85c-3.54,1.96-7.32,2.97-11.32,3.01
        c-4.01,0.04-8.6-1.06-13.79-3.31c-6.29-2.73-11.03-5.87-14.22-9.43c-3.19-3.56-5.24-8.26-6.14-14.12
        c-0.9-5.86,0.21-12.38,3.33-19.56c4.15-9.57,9.89-15.82,17.22-18.76c7.32-2.93,15.64-2.37,24.96,1.67
        c7.29,3.16,12.38,7.12,15.27,11.88c2.89,4.76,4.03,10.63,3.4,17.61l-17.31-3.34c0.21-2,0.19-3.54-0.06-4.62
        c-0.41-1.8-1.17-3.39-2.3-4.75c-1.13-1.36-2.59-2.44-4.38-3.21c-4.05-1.76-7.87-1.48-11.44,0.85c-2.68,1.71-5.15,5.15-7.39,10.33
        c-2.78,6.41-3.72,11.23-2.8,14.46c0.91,3.22,3.14,5.6,6.66,7.13c3.42,1.48,6.42,1.64,9.01,0.48
        C74.64,244.7,77.12,242.46,79.5,239.14z"/>
    <path d="M133.29,279.28l-20.3-8.81l-6.97,8.33l-18.26-7.92l46.86-48.43l19.5,8.46l-3.37,67.3l-18.73-8.13L133.29,279.28z
        M135.01,265.16l2.64-23.57l-15.35,18.06L135.01,265.16z"/>
    <path d="M181.64,242.85l44.21,19.18l-5.4,12.43l-26.25-11.39l-4.39,10.1l22.42,9.73l-5.07,11.68l-22.42-9.73l-10.26,23.65
        l-17.96-7.79L181.64,242.85z"/>
    <path d="M235.45,266.19l47.92,20.79L278,299.34l-30-13.02l-3.99,9.2l27.83,12.08l-5.12,11.8l-27.83-12.08l-4.95,11.41l30.87,13.39
        l-5.69,13.11l-48.79-21.17L235.45,266.19z"/>
</g>
</svg>