<?xml version="1.0" encoding="utf-8"?>
<!-- Generator: Adobe Illustrator 23.0.6, SVG Export Plug-In . SVG Version: 6.00 Build 0)  -->
<svg version="1.1" id="レイヤー_1" xmlns="http://www.w3.org/2000/svg" xmlns:xlink="http://www.w3.org/1999/xlink" x="0px"
	 y="0px" viewBox="0 0 495 100" style="enable-background:new 0 0 495 100;" xml:space="preserve">
<style type="text/css">
	.st0{fill:#231815;}
</style>
<g>
	<path class="st0" d="M7.39,100c-5.6,0-8.83-4.38-7.18-9.73l15.57-50.42c1.67-5.37,7.61-9.75,13.21-9.75H98.6
		c5.61,0,11.53-4.38,13.2-9.73l3.26-10.62C116.73,4.39,122.67,0,128.25,0h29.56c5.61,0,8.84,4.39,7.18,9.74l-24.85,80.53
		c-1.67,5.35-7.6,9.73-13.21,9.73H7.39z M99.62,59.8c1.66-5.36-1.57-9.73-7.18-9.73h-29.7c-5.6,0-11.53,4.37-13.19,9.73L46.31,70.3
		c-1.64,5.35,1.58,9.74,7.19,9.74h29.69c5.58,0,11.53-4.39,13.17-9.74L99.62,59.8z"/>
	<path class="st0" d="M277.33,100c-5.61,0-8.84-4.38-7.18-9.73l9.4-30.47c1.66-5.36-1.58-9.73-7.18-9.73h-29.68
		c-5.6,0-11.53,4.37-13.18,9.73l-9.42,30.47c-1.64,5.35-7.58,9.73-13.17,9.73h-29.55c-5.62,0-8.86-4.38-7.18-9.73l24.85-80.53
		C196.68,4.39,202.6,0,208.23,0h29.55c5.6,0,8.83,4.39,7.16,9.74l-3.24,10.48c-1.64,5.37,1.58,9.76,7.18,9.77l69.58,0.08
		c5.61,0.01,8.83,4.4,7.18,9.77l-15.56,50.42c-1.65,5.35-7.59,9.73-13.2,9.73H277.33z"/>
	<path class="st0" d="M346.15,100c-5.59,0-8.82-4.38-7.18-9.73l15.6-50.57c1.68-5.35,7.62-9.74,13.21-9.74h29.55
		c5.59,0,8.84,4.38,7.18,9.74l-9.45,30.6c-1.67,5.34,1.56,9.71,7.17,9.71h29.7c5.61,0,11.54-4.37,13.19-9.71l9.43-30.6
		c1.65-5.35,7.6-9.74,13.19-9.74h19.57c5.61,0,8.82,4.38,7.18,9.74L478.9,90.27c-1.67,5.35-7.57,9.73-13.18,9.73H346.15z"/>
</g>
</svg>
